<svg xmlns="http://www.w3.org/2000/svg" viewBox="0 0 1030.7 149.9"><defs><style>.cls-1{fill:#fff;}</style></defs><g id="Layer_2" data-name="Layer 2"><g id="Layer_2-2" data-name="Layer 2"><path class="cls-1" d="M38.11,140.17a72,72,0,0,1-28-26.9A73.86,73.86,0,0,1,0,75,73.85,73.85,0,0,1,10.15,36.64a72,72,0,0,1,28-26.9Q55.9,0,78.09,0q22,0,39.78,9.74a71.43,71.43,0,0,1,27.85,26.79q10,17.07,10.05,38.42t-10.05,38.42a71.38,71.38,0,0,1-27.85,26.8q-17.79,9.74-39.78,9.73Q55.9,149.9,38.11,140.17Zm69-16.23a53.74,53.74,0,0,0,20.31-20.2A56.58,56.58,0,0,0,134.83,75a56.63,56.63,0,0,0-7.43-28.79A53.81,53.81,0,0,0,107.09,26a57.63,57.63,0,0,0-29-7.33A58.76,58.76,0,0,0,48.89,26a53.32,53.32,0,0,0-20.52,20.2A56.53,56.53,0,0,0,20.94,75a56.48,56.48,0,0,0,7.43,28.79,53.25,53.25,0,0,0,20.52,20.2,58.65,58.65,0,0,0,29.2,7.33A57.52,57.52,0,0,0,107.09,123.94Z"/><path class="cls-1" d="M313.84,1.67V148.23H296.67L208.74,38.94V148.23H187.8V1.67H205L292.9,111V1.67Z"/><path class="cls-1" d="M563.4,1.67l-49,146.56h-22l-40-117-40,117h-22.4l-49-146.56h21.56L402.19,120.8,443.44,1.67H462.7l40.41,119.76L543.51,1.67Z"/><path class="cls-1" d="M649.24,1.68H628.52L562.15,148.24h21.56l16.12-36.64h46.56L639,94.85H607.16L638.77,23,662.1,76l8.29,18.81h0l7.35,16.75,4,9,12.16,27.65h22Z"/><path class="cls-1" d="M835.58,148.23l-31.62-45q-5.87.42-9.21.42H758.53v44.59H737.59V1.67h57.16q28.47,0,44.8,13.61t16.33,37.48q0,17-8.37,28.89T823.64,99l34.76,49.2Zm-11.1-71Q835,68.66,835,52.76T824.48,28.37Q814,19.89,794.12,19.89H758.53v66h35.59Q814,85.84,824.48,77.26Z"/><path class="cls-1" d="M889.8,1.67h61.76q23.24,0,41.25,9.22a67.72,67.72,0,0,1,28,25.85q9.93,16.65,9.94,38.21t-9.94,38.21a67.68,67.68,0,0,1-28,25.86q-18,9.21-41.25,9.21H889.8ZM950.31,130q17.79,0,31.3-6.91a50,50,0,0,0,20.83-19.37q7.32-12.45,7.33-28.79t-7.33-28.79A50,50,0,0,0,981.61,26.8q-13.51-6.91-31.3-6.91H910.74V130Z"/></g></g></svg>